<svg width="187" height="44" viewBox="0 0 187 44" fill="none" xmlns="http://www.w3.org/2000/svg">
  <path d="M16.9 41.92c-2.45 0-4.63-.69-6.02-2.56-1.2-1.63-1.48-4.09-.8-6.92.6-2.43 1.85-4.8 3.26-6.22a17.26 17.26 0 0 1 11.52-4.84c2.2-.08 4.32.24 6.3.94 2.11.75 3.96 1.9 5.5 3.41 1.55 1.5 2.22 3.07 2 4.62-.45 3.04-4.2 5.37-7.81 7.26-2.44 1.28-8.78 4.3-13.95 4.3Zm-3.15-15.3.4.41a12.9 12.9 0 0 0-2.95 5.69c-.6 2.5-.4 4.62.6 5.97 1.13 1.52 2.98 2.08 5.08 2.08 5.1 0 11.73-3.28 13.43-4.18 3.16-1.65 6.83-3.86 7.2-6.4.17-1.2-.37-2.38-1.65-3.63-5.72-5.6-15.86-5.38-21.7.47l-.41-.4Z" fill="#FADE2A"/>
  <path d="M26.47 36.72a44.7 44.7 0 0 1-8.57-1.1c-4.52-.96-9.17-2.38-10.5-3.06C2.22 29.96.07 25.72.81 19.61c.35-2.94 1.3-5.61 2.8-7.93 1.39-2.14 3.26-4 5.57-5.53 3.93-2.6 9.12-4.24 15-4.74 5.26-.44 10.75.07 15.47 1.43a30.27 30.27 0 0 1 10.86 6.14c3.67 3.21 5.75 6.62 5.85 9.62a6.52 6.52 0 0 1-1.7 4.63c-1.26 1.44-3.22 2.66-5.84 3.61a32.89 32.89 0 0 1-11.17 2.11c-1.64 0-3.22-.15-4.73-.46-.6-.12-1.52-.42-2.69-.8-1.67-.54-3.77-1.22-5.66-1.6-2.6-.54-3.71-.28-4.2.04-.28.19-.43.46-.47.85-.2 2 2.06 2.5 5.53 3.05 2.48.4 4.83.76 5.79 2.2.42.65.52 1.43.3 2.34-.17.7-.66 1.23-1.44 1.58-.9.4-2.17.57-3.62.57Zm1.4-34.31c-6.31 0-12.98 1.33-18.05 4.7a17.06 17.06 0 0 0-7.86 12.64c-.69 5.64 1.2 9.38 5.95 11.78 1.13.57 5.56 1.97 10.22 2.95 5.66 1.2 9.73 1.42 11.48.61.46-.2.72-.48.8-.82l.56.14-.56-.14c.15-.59.1-1.05-.14-1.42-.69-1.03-2.89-1.37-5.01-1.71-1.57-.25-3.2-.5-4.42-1.06-1.52-.69-2.22-1.78-2.08-3.23a2.2 2.2 0 0 1 1-1.7c1.96-1.3 6.24-.07 10.83 1.42 1.08.35 2.02.66 2.56.76 4.55.93 9.84.38 15.28-1.6 4.6-1.67 6.89-4.07 6.78-7.11-.19-5.66-8.83-12.66-15.87-14.69a42.52 42.52 0 0 0-11.46-1.52Z" fill="#87C221"/>
  <path d="M31.72 34.73a53.8 53.8 0 0 1-8.91-.77c-6.98-1.18-12.76-3.54-14.38-5.85-1.34-1.9-1.74-3.88-1.2-5.85.51-1.85 1.83-3.66 3.92-5.36a19.54 19.54 0 0 1 3.9-2.5 28.3 28.3 0 0 1 15.55-2.3c5.03.69 9.66 2.71 13.4 5.85a13.4 13.4 0 0 1 3.46 4.52c.83 1.8 1.14 3.6.87 5.2-.26 1.61-1.22 3.8-4.34 5.03a31.87 31.87 0 0 1-10.36 2c-.62.02-1.26.03-1.9.03ZM26.85 13c-3.81 0-7.69.8-11.33 2.45-1.56.7-6.2 3.52-7.17 7.12a5.65 5.65 0 0 0 1.02 4.88c.67.95 2.35 2.02 4.75 2.98 2.51 1 5.58 1.84 8.88 2.4 2.96.5 5.88.75 8.65.75 4.52 0 8.65-.66 11.93-1.95 2.06-.82 3.32-2.25 3.63-4.14.45-2.76-1.17-6.32-3.95-8.65A25.4 25.4 0 0 0 26.86 13Z" fill="#E13752"/>
  <path d="m15.87 28.63-1.03-.02C12 28.53 9.72 28 8.06 27.05a5.92 5.92 0 0 1-2.99-3.74c-.57-2.23.15-5 2.01-7.78A23.33 23.33 0 0 1 14.6 8.6c3.8-2.22 9.63-5.17 15.87-6.6C37.28.42 43.01 1 47.5 3.72c2.4 1.46 3.66 3.2 3.74 5.2.1 2.55-1.78 5.34-5.3 7.89-10.97 7.95-20.83 11.82-30.07 11.82ZM37.49 2.28c-2.1 0-4.37.28-6.77.83-6.1 1.41-11.82 4.3-15.54 6.48a22.15 22.15 0 0 0-7.14 6.57c-1.68 2.51-2.34 4.95-1.86 6.86a4.84 4.84 0 0 0 2.44 3.02c1.5.85 3.6 1.33 6.25 1.42l1 .01c9 0 18.63-3.8 29.4-11.6 3.15-2.27 4.9-4.79 4.82-6.9-.07-1.6-1.14-3.03-3.19-4.27a17.9 17.9 0 0 0-9.41-2.42Z" fill="#2C4BFF"/>
  <path d="M72.63 17.46c1.67 0 3.1.65 4.28 1.94a6.77 6.77 0 0 1 1.77 4.75c0 1.88-.59 3.46-1.77 4.75a5.59 5.59 0 0 1-4.28 1.94 4.74 4.74 0 0 1-3.78-1.54v1.19h-3.8V12.75h3.8v6.26a4.73 4.73 0 0 1 3.78-1.55ZM69.7 26.4c.56.56 1.28.84 2.16.84.88 0 1.6-.28 2.17-.84.57-.56.84-1.3.84-2.25s-.28-1.7-.84-2.26a2.97 2.97 0 0 0-2.17-.83c-.88 0-1.6.28-2.16.83a3 3 0 0 0-.85 2.26c0 .94.28 1.7.85 2.25ZM84.38 20.07c.24-.81.7-1.43 1.43-1.86a4.5 4.5 0 0 1 2.37-.64v4.3c-.93-.15-1.8 0-2.6.47s-1.2 1.27-1.2 2.42v5.72h-3.8V17.82h3.8v2.25ZM98.51 17.82h3.8v12.66h-3.8V29.3a4.73 4.73 0 0 1-3.77 1.54c-1.68 0-3.1-.64-4.28-1.93a6.77 6.77 0 0 1-1.78-4.75c0-1.88.6-3.46 1.78-4.76a5.59 5.59 0 0 1 4.28-1.93c1.62 0 2.87.51 3.77 1.54v-1.18Zm-5.19 8.58c.56.56 1.29.84 2.18.84.9 0 1.62-.28 2.18-.84.56-.56.84-1.3.84-2.25s-.28-1.7-.84-2.26a2.95 2.95 0 0 0-2.18-.83c-.9 0-1.62.28-2.18.83-.55.56-.83 1.3-.83 2.26 0 .94.28 1.7.83 2.25ZM108.36 16.03a2.2 2.2 0 0 1-1.62.67 2.2 2.2 0 0 1-1.6-.67 2.2 2.2 0 0 1-.68-1.61c0-.62.23-1.17.67-1.61a2.2 2.2 0 0 1 1.61-.67c.63 0 1.16.22 1.62.67.44.44.67.98.67 1.6a2.2 2.2 0 0 1-.67 1.62Zm-3.51 14.45V17.82h3.8v12.66h-3.8ZM118.6 17.46c1.36 0 2.48.47 3.39 1.4.9.93 1.35 2.21 1.35 3.85v7.78h-3.8v-7.22c0-.75-.2-1.32-.62-1.72-.41-.4-.94-.6-1.58-.6-.73 0-1.3.22-1.72.66-.42.44-.64 1.1-.64 1.95v6.92h-3.8V17.82h3.8V19c.76-1.03 1.96-1.55 3.62-1.55ZM129.54 30.13c-.47.47-1.03.71-1.7.71-.66 0-1.22-.24-1.7-.71a2.32 2.32 0 0 1-.7-1.7c0-.66.23-1.22.7-1.7a2.32 2.32 0 0 1 1.7-.7c.66 0 1.23.23 1.7.7.48.48.71 1.04.71 1.7 0 .66-.23 1.23-.7 1.7ZM144.7 17.82h4.05l-4.06 12.66h-3.54l-2.03-6.76-2.02 6.76h-3.55l-4.05-12.66h4.05l1.82 6.79 1.98-6.8h3.55l1.97 6.8 1.82-6.8ZM160.35 28.9a6.5 6.5 0 0 1-4.77 1.93 6.5 6.5 0 0 1-4.76-1.93 6.44 6.44 0 0 1-1.95-4.75c0-1.88.65-3.46 1.95-4.76a6.5 6.5 0 0 1 4.76-1.93 6.5 6.5 0 0 1 4.77 1.93 6.44 6.44 0 0 1 1.95 4.76c0 1.87-.65 3.45-1.95 4.75Zm-6.84-2.6c.55.56 1.25.84 2.07.84a2.8 2.8 0 0 0 2.08-.83c.56-.57.84-1.28.84-2.16 0-.88-.28-1.6-.84-2.15a2.83 2.83 0 0 0-2.08-.83c-.82 0-1.52.27-2.07.83a2.91 2.91 0 0 0-.84 2.15c0 .88.28 1.6.84 2.16ZM168 20.07a3.1 3.1 0 0 1 1.43-1.86 4.5 4.5 0 0 1 2.37-.64v4.3c-.93-.15-1.8 0-2.6.47s-1.2 1.27-1.2 2.42v5.72h-3.8V17.82h3.8v2.25ZM185.48 30.48h-4.3l-4.06-5.58v5.58h-3.8V12.75h3.8v10.61l3.8-5.55h4.43l-4.61 6.34 4.74 6.33Z" fill="#000"/>
</svg>
